<?xml version="1.0" encoding="utf-8"?>
<!-- Generator: Adobe Illustrator 22.0.1, SVG Export Plug-In . SVG Version: 6.00 Build 0)  -->
<svg version="1.1" id="Layer_3" xmlns="http://www.w3.org/2000/svg" xmlns:xlink="http://www.w3.org/1999/xlink" x="0px" y="0px"
	 viewBox="0 0 64 64" style="enable-background:new 0 0 64 64;" xml:space="preserve">
<style type="text/css">
	.st0{fill:#FAF5F5;}
	.st1{fill:#63312D;}
	.st2{fill:#F9A287;}
	.st3{fill:#FCB7A4;}
	.st4{fill:#DB785A;}
	.st5{fill:#E0E0E0;}
	.st6{fill:#84DBFF;}
	.st7{fill:#EFC36A;}
	.st8{fill:#F9DD9D;}
	.st9{fill:#EEC26A;}
	.st10{fill:#A9EBFF;}
	.st11{fill:#52BADB;}
	.st12{fill:#FFFFFF;}
	.st13{fill:#F0EEEE;}
	.st14{fill:#BDBDBD;}
	.st15{fill:#E3DFDF;}
	.st16{fill:#FFE8BB;}
	.st17{fill:#FFF2D2;}
	.st18{fill:#D8C18F;}
	.st19{fill:#EAD194;}
	.st20{fill:#BFA064;}
	.st21{fill:#CCCCCC;}
	.st22{fill:#C5F1FF;}
	.st23{fill:#D3A553;}
	.st24{fill:#67C7E5;}
</style>
<g>
	<path class="st6" d="M46.891,26.883c0,3.279-6.667,5.937-14.891,5.937s-14.891-2.658-14.891-5.937V19.9h29.782V26.883z"/>
	<path class="st12" d="M32,32.819c-8.224,0-14.891-2.658-14.891-5.937v9.349c0,3.279,6.667,5.937,14.891,5.937
		s14.891-2.658,14.891-5.937v-9.349C46.891,30.161,40.224,32.819,32,32.819z"/>
	<path class="st6" d="M32,42.163c-8.224,0-14.891-2.658-14.891-5.937v9.349c0,3.279,6.667,5.937,14.891,5.937
		s14.891-2.658,14.891-5.937v-9.349C46.891,39.505,40.224,42.163,32,42.163z"/>
	<path class="st10" d="M18.75,19.9h-1.641v6.983c0,0.974,0.599,1.89,1.641,2.7V19.9z"/>
	<path class="st10" d="M18.75,38.927c-1.042-0.811-1.641-1.727-1.641-2.7v9.349c0,0.974,0.599,1.89,1.641,2.7V38.927z"/>
	<path class="st1" d="M32,33.319c-8.63,0-15.391-2.827-15.391-6.437V19.9c0-0.276,0.224-0.5,0.5-0.5h29.781
		c0.276,0,0.5,0.224,0.5,0.5v6.982C47.391,30.492,40.63,33.319,32,33.319z M17.609,20.4v6.482c0,2.947,6.59,5.437,14.391,5.437
		s14.391-2.489,14.391-5.437V20.4H17.609z"/>
	<rect x="31.5" y="24.472" class="st1" width="1" height="2.697"/>
	<path class="st1" d="M32,42.668c-8.63,0-15.391-2.827-15.391-6.437v-9.35c0-0.276,0.224-0.5,0.5-0.5s0.5,0.224,0.5,0.5
		c0,2.947,6.59,5.437,14.391,5.437s14.391-2.489,14.391-5.437c0-0.276,0.224-0.5,0.5-0.5s0.5,0.224,0.5,0.5v9.35
		C47.391,39.841,40.63,42.668,32,42.668z M17.609,29.208v7.023c0,2.947,6.59,5.437,14.391,5.437s14.391-2.489,14.391-5.437v-7.023
		c-2.187,2.427-7.732,4.11-14.391,4.11S19.796,31.635,17.609,29.208z"/>
	<path class="st1" d="M32,52.012c-8.63,0-15.391-2.828-15.391-6.438v-9.349c0-0.276,0.224-0.5,0.5-0.5s0.5,0.224,0.5,0.5
		c0,2.947,6.59,5.437,14.391,5.437s14.391-2.489,14.391-5.437c0-0.276,0.224-0.5,0.5-0.5s0.5,0.224,0.5,0.5v9.349
		C47.391,49.184,40.63,52.012,32,52.012z M17.609,38.552v7.022c0,2.947,6.59,5.438,14.391,5.438s14.391-2.49,14.391-5.438v-7.022
		c-2.187,2.427-7.732,4.11-14.391,4.11S19.796,40.979,17.609,38.552z"/>
	<polygon class="st6" points="54.336,13.71 32,24.472 9.664,13.71 32,2.948 	"/>
	<polygon class="st10" points="13.164,13.71 33.75,3.791 32,2.948 9.664,13.71 32,24.472 33.75,23.629 	"/>
	<path class="st1" d="M32,24.972c-0.074,0-0.148-0.017-0.217-0.05L9.447,14.161c-0.173-0.083-0.283-0.258-0.283-0.45
		s0.11-0.367,0.283-0.45L31.783,2.498c0.137-0.066,0.297-0.066,0.434,0L54.553,13.26c0.173,0.083,0.283,0.258,0.283,0.45
		s-0.11,0.367-0.283,0.45L32.217,24.922C32.148,24.956,32.074,24.972,32,24.972z M10.816,13.71L32,23.917L53.184,13.71L32,3.502
		L10.816,13.71z"/>
	<polygon class="st11" points="32,24.472 9.664,13.71 9.664,16.407 32,27.169 54.336,16.407 54.336,13.71 	"/>
	<polygon class="st10" points="11.187,14.444 9.664,13.71 9.664,16.407 11.187,17.141 	"/>
	<path class="st1" d="M32,27.669c-0.074,0-0.148-0.017-0.217-0.05L9.447,16.857c-0.173-0.083-0.283-0.258-0.283-0.45V13.71
		c0-0.172,0.089-0.332,0.234-0.424c0.146-0.092,0.329-0.101,0.482-0.026L32,23.917L54.119,13.26
		c0.153-0.075,0.336-0.066,0.482,0.026c0.146,0.092,0.234,0.252,0.234,0.424v2.696c0,0.192-0.11,0.367-0.283,0.45L32.217,27.62
		C32.148,27.653,32.074,27.669,32,27.669z M10.164,16.092L32,26.615l21.836-10.522v-1.586L32.217,24.922
		c-0.137,0.066-0.297,0.066-0.434,0L10.164,14.506V16.092z"/>
	<path class="st1" d="M13.031,24.654h-1v-9.597c0-0.19,0.108-0.364,0.279-0.449l6.544-3.216l0.441,0.898l-6.265,3.078V24.654z"/>
	<circle class="st12" cx="12.531" cy="25.821" r="1.583"/>
	<path class="st1" d="M12.531,27.904c-1.149,0-2.084-0.935-2.084-2.083c0-1.149,0.935-2.084,2.084-2.084
		c1.148,0,2.083,0.935,2.083,2.084C14.614,26.969,13.68,27.904,12.531,27.904z M12.531,24.737c-0.598,0-1.084,0.486-1.084,1.084
		s0.486,1.083,1.084,1.083s1.083-0.485,1.083-1.083S13.129,24.737,12.531,24.737z"/>
	<path class="st8" d="M14.614,35.154h-4.167v-5.667c0-1.151,0.933-2.083,2.083-2.083h0c1.151,0,2.083,0.933,2.083,2.083V35.154z"/>
	<path class="st1" d="M14.614,35.654h-4.167c-0.276,0-0.5-0.224-0.5-0.5v-5.667c0-1.424,1.159-2.583,2.584-2.583
		c1.424,0,2.583,1.159,2.583,2.583v5.667C15.114,35.43,14.891,35.654,14.614,35.654z M10.947,34.654h3.167v-5.167
		c0-0.873-0.71-1.583-1.583-1.583s-1.584,0.71-1.584,1.583V34.654z"/>
	<rect x="31.5" y="51.512" class="st1" width="1" height="4.436"/>
	<path class="st1" d="M32,61.552c-1.683,0-3.052-1.369-3.052-3.052c0-1.684,1.369-3.053,3.052-3.053s3.052,1.369,3.052,3.053
		C35.052,60.183,33.683,61.552,32,61.552z M32,56.448c-1.131,0-2.052,0.921-2.052,2.053c0,1.131,0.921,2.052,2.052,2.052
		s2.052-0.921,2.052-2.052C34.052,57.369,33.131,56.448,32,56.448z"/>
	<path class="st1" d="M43.333,61.552c-1.683,0-3.052-1.369-3.052-3.052c0-1.684,1.369-3.053,3.052-3.053
		c1.684,0,3.053,1.369,3.053,3.053C46.386,60.183,45.017,61.552,43.333,61.552z M43.333,56.448c-1.131,0-2.052,0.921-2.052,2.053
		c0,1.131,0.921,2.052,2.052,2.052c1.132,0,2.053-0.921,2.053-2.052C45.386,57.369,44.465,56.448,43.333,56.448z"/>
	<path class="st1" d="M20.667,61.552c-1.684,0-3.053-1.369-3.053-3.052c0-1.684,1.369-3.053,3.053-3.053
		c1.683,0,3.052,1.369,3.052,3.053C23.719,60.183,22.35,61.552,20.667,61.552z M20.667,56.448c-1.132,0-2.053,0.921-2.053,2.053
		c0,1.131,0.921,2.052,2.053,2.052c1.131,0,2.052-0.921,2.052-2.052C22.719,57.369,21.798,56.448,20.667,56.448z"/>
	<rect x="23.219" y="58" class="st1" width="6.229" height="1"/>
	<rect x="34.552" y="58" class="st1" width="6.229" height="1"/>
</g>
</svg>
